<svg width="70" height="40" viewBox="0 0 70 40" fill="none" xmlns="http://www.w3.org/2000/svg">
<path d="M37.2552 1.61586C38.1804 0.653387 39.4369 0.11267 40.7453 0.112671C46.6319 0.112671 52.1794 0.112674 57.6425 0.112685C68.6303 0.112708 74.1325 13.9329 66.3629 22.0156L49.439 39.6217C48.662 40.43 47.3335 39.8575 47.3335 38.7144V23.2076L49.2893 21.1729C50.8433 19.5564 49.7428 16.7923 47.5452 16.7923H22.6667L37.2552 1.61586Z" fill="white"/>
<path d="M32.7449 38.3842C31.8197 39.3467 30.5633 39.8874 29.2549 39.8874C23.3683 39.8874 17.8207 39.8874 12.3576 39.8874C1.36983 39.8873 -4.13237 26.0672 3.63721 17.9844L20.5611 0.378368C21.3381 -0.429908 22.6666 0.142547 22.6666 1.28563V16.7923L20.7108 18.8271C19.1568 20.4437 20.2574 23.2077 22.455 23.2077L47.3334 23.2076L32.7449 38.3842Z" fill="white"/>
</svg>
